# xmcd CD database file
#
# Track frame offsets:
#	225
#	19934
#	36563
#	52042
#	70896
#	88470
#	106595
#	128838
#	146318
#	160191
#	180543
#
# Disc length: 2599 seconds
#
# Revision: 0
# Processed by: cddbd v1.5PL3 Copyright (c) Steve Scherf et al.
# Submitted via: CDex 1.50
#
DISCID=980a240b
DTITLE=Kurt Thomas - Turn Up the Radio
DYEAR=2004
DGENRE=Country
TTITLE0=Turn Up the Radio
TTITLE1=Effect is Love
TTITLE2=Happily Ever After (You Were Gone)
TTITLE3=Forever in Love
TTITLE4=Daddy's Girl
TTITLE5=Right About Now
TTITLE6=If He Breaks Your Heart
TTITLE7=We'll Make a Little More
TTITLE8=One on One
TTITLE9=Summer's Gone
TTITLE10=Take a Ride
EXTD=YEAR: 2004
EXTT0=
EXTT1=
EXTT2=
EXTT3=
EXTT4=
EXTT5=
EXTT6=
EXTT7=
EXTT8=
EXTT9=
EXTT10=
PLAYORDER=
